<svg width="28" height="28" viewBox="0 0 28 28" fill="none" xmlns="http://www.w3.org/2000/svg">
<g clip-path="url(#clip0_14_246)">
<path d="M26.0789 14.5912L20.6889 12.11V5.00116C20.6864 4.85201 20.6411 4.70673 20.5583 4.58262C20.4756 4.4585 20.3589 4.3608 20.2222 4.30116L14.3889 1.61782C14.2865 1.57044 14.175 1.5459 14.0622 1.5459C13.9494 1.5459 13.8379 1.57044 13.7355 1.61782L7.90219 4.30116C7.76719 4.36364 7.65293 4.46353 7.57297 4.58897C7.49301 4.71442 7.45071 4.86017 7.45108 5.00894V12.1178L2.08441 14.5912C1.94941 14.6536 1.83515 14.7535 1.75519 14.879C1.67524 15.0044 1.63294 15.1502 1.6333 15.2989V22.9056C1.63294 23.0544 1.67524 23.2001 1.75519 23.3256C1.83515 23.451 1.94941 23.5509 2.08441 23.6134L7.91775 26.2967C8.02013 26.3441 8.1316 26.3686 8.24441 26.3686C8.35723 26.3686 8.4687 26.3441 8.57108 26.2967L14.0777 23.7612L19.5844 26.2967C19.6868 26.3441 19.7983 26.3686 19.9111 26.3686C20.0239 26.3686 20.1354 26.3441 20.2377 26.2967L26.0711 23.6134C26.2061 23.5509 26.3203 23.451 26.4003 23.3256C26.4803 23.2001 26.5226 23.0544 26.5222 22.9056V15.2989C26.5232 15.151 26.4821 15.0059 26.4036 14.8805C26.3251 14.7551 26.2124 14.6548 26.0789 14.5912ZM23.8933 15.2989L19.9189 17.1112L15.9444 15.2989L19.9189 13.4712L23.8933 15.2989ZM14.0777 3.17338L18.0522 5.00116L14.0777 6.82893L10.1111 5.00116L14.0777 3.17338ZM8.24441 13.4634L12.2189 15.2912L8.24441 17.1112L4.26997 15.2989L8.24441 13.4634ZM13.3 22.4L8.24441 24.7334L3.18886 22.4V16.5123L7.91775 18.6667C8.01802 18.7118 8.1267 18.7351 8.23664 18.7351C8.34657 18.7351 8.45526 18.7118 8.55553 18.6667L13.2844 16.4889L13.3 22.4ZM9.02219 12.11V6.22227L13.7511 8.40005C13.8535 8.44743 13.9649 8.47197 14.0777 8.47197C14.1906 8.47197 14.302 8.44743 14.4044 8.40005L19.1333 6.22227V12.1178L14.0777 14.4512L9.02219 12.11ZM24.9744 22.4078L19.9189 24.7412L14.8555 22.4078V16.5045L19.5922 18.6667C19.6914 18.7107 19.7987 18.7334 19.9072 18.7334C20.0157 18.7334 20.123 18.7107 20.2222 18.6667L24.9511 16.4889L24.9744 22.4078Z" fill="#EFC131"/>
</g>
<defs>
<clipPath id="clip0_14_246">
<rect width="28" height="28" fill="white"/>
</clipPath>
</defs>
</svg>
