<svg width="28" height="28" viewBox="0 0 28 28" fill="none" xmlns="http://www.w3.org/2000/svg">
<g clip-path="url(#clip0_14_223)">
<path d="M26.0478 20.4401C25.9931 20.2461 25.8652 20.0809 25.6911 19.9793C25.517 19.8778 25.3102 19.8478 25.1144 19.8957L23.1778 20.4168C24.2375 18.8546 24.8801 17.0473 25.0444 15.1668C25.2033 13.4073 24.946 11.6352 24.2934 9.99361C23.6408 8.35199 22.6112 6.88692 21.2878 5.71676C21.1348 5.59023 20.9392 5.52699 20.7411 5.54C20.543 5.55302 20.3573 5.6413 20.2222 5.78676C20.0863 5.94156 20.0173 6.14397 20.0304 6.34957C20.0435 6.55518 20.1377 6.74718 20.2922 6.88343C21.4326 7.89006 22.3198 9.15119 22.882 10.5646C23.4441 11.9781 23.6654 13.5041 23.5278 15.019C23.3942 16.6145 22.8591 18.1504 21.9722 19.4834L21.7778 17.5312C21.7924 17.4163 21.7812 17.2996 21.745 17.1896C21.7088 17.0796 21.6485 16.979 21.5685 16.8953C21.4884 16.8116 21.3907 16.7468 21.2824 16.7056C21.1742 16.6645 21.0581 16.6481 20.9426 16.6576C20.8272 16.667 20.7153 16.7022 20.6152 16.7604C20.5151 16.8186 20.4293 16.8985 20.3639 16.9941C20.2986 17.0898 20.2555 17.1988 20.2377 17.3133C20.2199 17.4277 20.2279 17.5447 20.2611 17.6557L20.65 22.6645L25.5111 21.3734C25.7037 21.3171 25.867 21.1886 25.967 21.0146C26.067 20.8407 26.096 20.6349 26.0478 20.4401Z" fill="#EFC131"/>
<path d="M3.35224 13.2846C3.45606 13.3501 3.57278 13.3926 3.69446 13.409C3.89745 13.4356 4.10274 13.3812 4.26582 13.2574C4.4289 13.1336 4.5366 12.9506 4.56557 12.7479C4.88695 10.375 6.09286 8.21112 7.94183 6.68955C9.79079 5.16798 12.1463 4.40105 14.5367 4.54234L12.7945 5.73234C12.6712 5.82521 12.5783 5.95265 12.5277 6.09845C12.4771 6.24425 12.471 6.40181 12.5102 6.55108C12.5494 6.70036 12.6321 6.8346 12.7478 6.93673C12.8635 7.03885 13.007 7.10423 13.16 7.12456C13.3352 7.14058 13.5107 7.09671 13.6578 7.00012L17.8034 4.15345L14.2567 0.591228C14.1936 0.494521 14.1097 0.41308 14.0112 0.35282C13.9127 0.292559 13.802 0.254991 13.6872 0.242842C13.5723 0.230693 13.4562 0.244268 13.3473 0.282582C13.2383 0.320897 13.1393 0.382988 13.0574 0.464349C12.9754 0.545711 12.9126 0.644299 12.8735 0.752958C12.8344 0.861617 12.82 0.977619 12.8313 1.09254C12.8426 1.20747 12.8794 1.31843 12.9389 1.41737C12.9985 1.51631 13.0793 1.60075 13.1756 1.66456L14.4978 2.98678C11.7373 2.85479 9.02769 3.76251 6.90379 5.53075C4.77989 7.29898 3.39609 9.79923 3.02557 12.5379C3.00563 12.6804 3.02561 12.8256 3.08328 12.9574C3.14095 13.0893 3.23405 13.2025 3.35224 13.2846Z" fill="#EFC131"/>
<path d="M16.901 23.2788C15.6864 23.6668 14.4053 23.8018 13.1365 23.6755C11.5914 23.524 10.1063 22.9988 8.80947 22.1451C7.51267 21.2914 6.44313 20.1349 5.69318 18.7755L7.62985 19.4988C7.80837 19.5298 7.9921 19.4974 8.14933 19.4074C8.30655 19.3173 8.42741 19.1752 8.49102 19.0056C8.55464 18.8359 8.55704 18.6494 8.49779 18.4782C8.43855 18.3069 8.32138 18.1618 8.16652 18.0677L4.59652 16.7455L3.45318 16.3333L2.58985 21.2721C2.55992 21.4695 2.60702 21.6708 2.72139 21.8344C2.83576 21.998 3.00866 22.1114 3.20429 22.151H3.33652C3.51957 22.1544 3.69794 22.093 3.84021 21.9778C3.98248 21.8625 4.07954 21.7008 4.11429 21.521L4.44096 19.6544C5.32065 21.1954 6.55626 22.5035 8.04462 23.4696C9.53297 24.4357 11.2309 25.0316 12.9965 25.2077C14.4727 25.3542 15.9633 25.1954 17.3754 24.741C17.5552 24.6666 17.7006 24.5274 17.7828 24.351C17.865 24.1746 17.8781 23.9738 17.8195 23.7882C17.7609 23.6026 17.6349 23.4458 17.4662 23.3486C17.2976 23.2514 17.0987 23.2209 16.9087 23.2633L16.901 23.2788Z" fill="#EFC131"/>
<path d="M17.1113 10.1111H10.8891C10.6828 10.1111 10.485 10.193 10.3391 10.3389C10.1933 10.4848 10.1113 10.6826 10.1113 10.8889V17.1111C10.1113 17.3174 10.1933 17.5152 10.3391 17.6611C10.485 17.8069 10.6828 17.8889 10.8891 17.8889H17.1113C17.3176 17.8889 17.5154 17.8069 17.6613 17.6611C17.8072 17.5152 17.8891 17.3174 17.8891 17.1111V10.8889C17.8891 10.6826 17.8072 10.4848 17.6613 10.3389C17.5154 10.193 17.3176 10.1111 17.1113 10.1111ZM16.3336 16.3333H11.6669V11.6666H16.3336V16.3333Z" fill="#EFC131"/>
</g>
<defs>
<clipPath id="clip0_14_223">
<rect width="28" height="28" fill="white"/>
</clipPath>
</defs>
</svg>
