<svg width="28" height="28" viewBox="0 0 28 28" fill="none" xmlns="http://www.w3.org/2000/svg">
<g clip-path="url(#clip0_14_238)">
<path d="M22.7809 3.88877H20.9998V5.44433H22.5553V24.8888H5.44423V5.44433H6.99978V3.88877H5.44423C5.25375 3.86122 5.0596 3.87438 4.87458 3.92738C4.68957 3.98037 4.51789 4.072 4.37089 4.19622C4.22389 4.32044 4.1049 4.47442 4.02178 4.648C3.93865 4.82158 3.89329 5.01082 3.88867 5.20322V25.1299C3.88969 25.3035 3.9249 25.4753 3.99229 25.6353C4.05968 25.7953 4.15793 25.9405 4.28143 26.0626C4.40494 26.1846 4.55127 26.2812 4.71208 26.3467C4.8729 26.4122 5.04503 26.4454 5.21867 26.4443H22.7809C22.9545 26.4454 23.1267 26.4122 23.2875 26.3467C23.4483 26.2812 23.5946 26.1846 23.7181 26.0626C23.8416 25.9405 23.9399 25.7953 24.0073 25.6353C24.0747 25.4753 24.1099 25.3035 24.1109 25.1299V5.20322C24.1099 5.02958 24.0747 4.85784 24.0073 4.69781C23.9399 4.53778 23.8416 4.39259 23.7181 4.27054C23.5946 4.14848 23.4483 4.05194 23.2875 3.98644C23.1267 3.92094 22.9545 3.88775 22.7809 3.88877Z" fill="#EFC131"/>
<path d="M20.2223 5.70122C20.2202 5.22122 20.0286 4.76146 19.6892 4.42204C19.3498 4.08263 18.8901 3.89104 18.4101 3.88899H17.0101C16.8387 3.21978 16.4495 2.62663 15.9038 2.20305C15.3581 1.77947 14.687 1.54956 13.9962 1.54956C13.3054 1.54956 12.6342 1.77947 12.0885 2.20305C11.5428 2.62663 11.1536 3.21978 10.9823 3.88899H9.59005C9.11005 3.89104 8.6503 4.08263 8.31088 4.42204C7.97147 4.76146 7.77988 5.22122 7.77783 5.70122V8.55566H20.2223V5.70122ZM18.6667 7.0001H9.33339V5.70122C9.33339 5.66751 9.34003 5.63413 9.35293 5.60299C9.36582 5.57185 9.38473 5.54356 9.40856 5.51973C9.4324 5.49589 9.46069 5.47699 9.49183 5.46409C9.52297 5.45119 9.55635 5.44455 9.59005 5.44455H12.4445V4.66677C12.4445 4.25421 12.6084 3.85855 12.9001 3.56683C13.1918 3.2751 13.5875 3.11122 14.0001 3.11122C14.4126 3.11122 14.8083 3.2751 15.1 3.56683C15.3917 3.85855 15.5556 4.25421 15.5556 4.66677V5.44455H18.4101C18.4781 5.44455 18.5434 5.47159 18.5915 5.51973C18.6397 5.56786 18.6667 5.63314 18.6667 5.70122V7.0001Z" fill="#EFC131"/>
<path d="M8.55566 10.8889H19.4446V12.4445H8.55566V10.8889Z" fill="#EFC131"/>
<path d="M8.55566 14H19.4446V15.5556H8.55566V14Z" fill="#EFC131"/>
<path d="M8.55566 17.1111H19.4446V18.6666H8.55566V17.1111Z" fill="#EFC131"/>
<path d="M8.55566 20.2222H19.4446V21.7777H8.55566V20.2222Z" fill="#EFC131"/>
</g>
<defs>
<clipPath id="clip0_14_238">
<rect width="28" height="28" fill="white"/>
</clipPath>
</defs>
</svg>
