<svg width="21" height="17" viewBox="0 0 21 17" fill="none" xmlns="http://www.w3.org/2000/svg">
<path d="M1.88533 16.3333C1.34789 16.3333 0.8995 16.1537 0.540167 15.7943C0.180833 15.435 0.000777778 14.9862 0 14.448V1.88533C0 1.34789 0.180056 0.8995 0.540167 0.540166C0.900278 0.180833 1.34828 0.000777778 1.88417 0H19.1158C19.6525 0 20.1005 0.180055 20.4598 0.540166C20.8192 0.900278 20.9992 1.34867 21 1.88533V14.4492C21 14.9858 20.8199 15.4342 20.4598 15.7943C20.0997 16.1544 19.6517 16.3341 19.1158 16.3333H1.88533ZM10.5 8.302L1.16667 2.19917V14.4492C1.16667 14.6584 1.23394 14.8303 1.3685 14.9648C1.50306 15.0994 1.67533 15.1667 1.88533 15.1667H19.1158C19.3251 15.1667 19.4969 15.0994 19.6315 14.9648C19.7661 14.8303 19.8333 14.658 19.8333 14.448V2.198L10.5 8.302ZM10.5 7L19.474 1.16667H1.526L10.5 7ZM1.16667 2.19917V1.16667V14.4492C1.16667 14.6584 1.23394 14.8303 1.3685 14.9648C1.50306 15.0994 1.67533 15.1667 1.88533 15.1667H1.16667V2.19917Z" fill="#EFC131"/>
</svg>
