<svg width="24" height="24" viewBox="0 0 24 24" fill="none" xmlns="http://www.w3.org/2000/svg">
<path d="M0.75 21.3214V2.46429C0.75 2.00963 0.930612 1.57359 1.2521 1.2521C1.57359 0.930612 2.00963 0.75 2.46429 0.75H21.3214C21.7761 0.75 22.2121 0.930612 22.5336 1.2521C22.8551 1.57359 23.0357 2.00963 23.0357 2.46429V21.3214C23.0357 21.7761 22.8551 22.2121 22.5336 22.5336C22.2121 22.8551 21.7761 23.0357 21.3214 23.0357H16.1786V14.91H17.3957C17.6731 14.91 17.939 14.7998 18.1351 14.6037C18.3313 14.4076 18.4414 14.1416 18.4414 13.8643V12.5443C18.4414 12.2669 18.3313 12.001 18.1351 11.8049C17.939 11.6087 17.6731 11.4986 17.3957 11.4986H16.2471V9.88714C16.2471 8.44714 16.8986 8.44714 17.55 8.44714H18.39C18.528 8.45283 18.6655 8.42814 18.7929 8.37482C18.9203 8.32149 19.0344 8.24085 19.1271 8.13857C19.2268 8.04373 19.3056 7.92925 19.3587 7.80236C19.4119 7.67548 19.4381 7.53896 19.4357 7.40143V6.13286C19.4403 5.99326 19.4173 5.85413 19.3681 5.72343C19.3189 5.59272 19.2443 5.473 19.1488 5.3711C19.0533 5.26921 18.9386 5.18714 18.8114 5.1296C18.6841 5.07205 18.5467 5.04014 18.4071 5.03571H16.4357C15.8605 5.01409 15.2874 5.11759 14.7561 5.33907C14.2248 5.56055 13.7478 5.89473 13.3583 6.31852C12.9687 6.74231 12.6758 7.24562 12.4997 7.79368C12.3237 8.34173 12.2687 8.92147 12.3386 9.49286V11.4986H11.2414C11.1027 11.4963 10.9648 11.5217 10.836 11.5732C10.7071 11.6247 10.5898 11.7014 10.4909 11.7987C10.392 11.8961 10.3134 12.0121 10.2598 12.1401C10.2062 12.2681 10.1786 12.4055 10.1786 12.5443V13.8643C10.1786 14.0031 10.2062 14.1405 10.2598 14.2685C10.3134 14.3965 10.392 14.5125 10.4909 14.6098C10.5898 14.7072 10.7071 14.7838 10.836 14.8354C10.9648 14.8869 11.1027 14.9123 11.2414 14.91H12.3386V23.0357H2.46429C2.00963 23.0357 1.57359 22.8551 1.2521 22.5336C0.930612 22.2121 0.75 21.7761 0.75 21.3214Z" stroke="#EFC131" stroke-width="1.5" stroke-linecap="round" stroke-linejoin="round"/>
</svg>
