<svg width="24" height="24" viewBox="0 0 24 24" fill="none" xmlns="http://www.w3.org/2000/svg">
<g clip-path="url(#clip0_101_320)">
<path d="M12.27 10.5681C12.2703 10.8715 12.2108 11.1719 12.0949 11.4523C11.9791 11.7326 11.8091 11.9874 11.5948 12.2021C11.3805 12.4168 11.126 12.5872 10.8458 12.7035C10.5657 12.8198 10.2654 12.8799 9.962 12.8801C9.65865 12.8799 9.35832 12.8198 9.07815 12.7035C8.79799 12.5872 8.54349 12.4168 8.32917 12.2021C8.11485 11.9874 7.94492 11.7326 7.82907 11.4523C7.71323 11.1719 7.65374 10.8715 7.654 10.5681C7.65347 10.0625 7.75254 9.56179 7.94553 9.09448C8.13853 8.62718 8.42168 8.20246 8.77881 7.84459C9.13594 7.48671 9.56007 7.20268 10.027 7.00871C10.4939 6.81475 10.9944 6.71464 11.5 6.71412C12.0056 6.71464 12.5061 6.81475 12.973 7.00871C13.4399 7.20268 13.8641 7.48671 14.2212 7.84459C14.5783 8.20246 14.8615 8.62718 15.0545 9.09448C15.2475 9.56179 15.3465 10.0625 15.346 10.5681C15.3468 11.2759 15.2082 11.977 14.938 12.6312C14.6679 13.2855 14.2715 13.8801 13.7715 14.3812C13.2716 14.8822 12.6779 15.2799 12.0242 15.5515C11.3706 15.8231 10.6698 15.9633 9.962 15.9641C9.25409 15.9635 8.55324 15.8234 7.89949 15.5518C7.24573 15.2803 6.65186 14.8826 6.1518 14.3815C5.65175 13.8805 5.2553 13.2858 4.98509 12.6315C4.71488 11.9772 4.57621 11.276 4.577 10.5681C4.577 6.73612 7.677 3.63012 11.5 3.63012C15.323 3.63012 18.423 6.73612 18.423 10.5681C18.423 15.2511 14.635 19.0471 9.962 19.0471C5.288 19.0471 1.5 15.2511 1.5 10.5671C1.5 5.03312 5.977 0.547119 11.5 0.547119C17.023 0.547119 21.5 5.03312 21.5 10.5671V20.9171L21.167 21.2641C20.509 21.9481 20.182 22.9141 20 23.8641C19.817 22.9141 19.491 21.9481 18.833 21.2641L18.5 20.9171V16.0471M18.5 18.5471H21.5" stroke="#EFC131" stroke-width="1.33333"/>
</g>
<defs>
<clipPath id="clip0_101_320">
<rect width="24" height="24" fill="white"/>
</clipPath>
</defs>
</svg>
