<svg width="18" height="18" viewBox="0 0 18 18" fill="none" xmlns="http://www.w3.org/2000/svg">
<path d="M7.12337 11.2502L12.7484 5.62521M7.12337 11.6252V13.2955C7.12337 15.076 7.12337 15.9655 7.65587 16.108C8.18837 16.2505 8.74937 15.5095 9.87137 14.0282L10.4984 13.1252M6.00437 5.75946L11.4951 3.16446C13.7766 2.08596 14.9174 1.54671 15.6449 2.08746C16.3724 2.62821 16.1646 3.86121 15.7484 6.32646L15.0329 10.573C14.7606 12.1847 14.6249 12.9902 14.0241 13.342C13.4234 13.6937 12.6426 13.4237 11.0819 12.8837L6.30812 11.2322C3.38912 10.2227 1.92962 9.71796 1.87562 8.72721C1.82012 7.73721 3.21512 7.07721 6.00437 5.75946Z" stroke="#232A58" stroke-width="1.125" stroke-linecap="round" stroke-linejoin="round"/>
</svg>
