<svg width="24" height="24" viewBox="0 0 24 24" fill="none" xmlns="http://www.w3.org/2000/svg">
<path d="M17.5998 5.5998H19.1998M7.1998 0.799805H16.7998C18.4972 0.799805 20.1251 1.47409 21.3253 2.67432C22.5255 3.87455 23.1998 5.50242 23.1998 7.1998V16.7998C23.1998 18.4972 22.5255 20.1251 21.3253 21.3253C20.1251 22.5255 18.4972 23.1998 16.7998 23.1998H7.1998C5.50242 23.1998 3.87455 22.5255 2.67432 21.3253C1.47409 20.1251 0.799805 18.4972 0.799805 16.7998V7.1998C0.799805 5.50242 1.47409 3.87455 2.67432 2.67432C3.87455 1.47409 5.50242 0.799805 7.1998 0.799805ZM11.9998 16.7998C10.7268 16.7998 9.50587 16.2941 8.60569 15.3939C7.70552 14.4937 7.1998 13.2728 7.1998 11.9998C7.1998 10.7268 7.70552 9.50587 8.60569 8.60569C9.50587 7.70552 10.7268 7.1998 11.9998 7.1998C13.2728 7.1998 14.4937 7.70552 15.3939 8.60569C16.2941 9.50587 16.7998 10.7268 16.7998 11.9998C16.7998 13.2728 16.2941 14.4937 15.3939 15.3939C14.4937 16.2941 13.2728 16.7998 11.9998 16.7998Z" stroke="#EFC131" stroke-width="1.86667"/>
</svg>
