<svg width="19" height="25" viewBox="0 0 19 25" fill="none" xmlns="http://www.w3.org/2000/svg">
<path d="M9.5 24.0833C9.5 24.0833 18.25 17.0833 18.25 9.5C18.25 4.66767 14.3323 0.75 9.5 0.75C4.66767 0.75 0.75 4.66767 0.75 9.5C0.75 17.0833 9.5 24.0833 9.5 24.0833Z" stroke="#EFC131" stroke-width="1.5" stroke-linejoin="round"/>
<path d="M9.5 13C9.95963 13 10.4148 12.9095 10.8394 12.7336C11.264 12.5577 11.6499 12.2999 11.9749 11.9749C12.2999 11.6499 12.5577 11.264 12.7336 10.8394C12.9095 10.4148 13 9.95963 13 9.5C13 9.04037 12.9095 8.58525 12.7336 8.16061C12.5577 7.73597 12.2999 7.35013 11.9749 7.02513C11.6499 6.70012 11.264 6.44231 10.8394 6.26642C10.4148 6.09053 9.95963 6 9.5 6C8.57174 6 7.6815 6.36875 7.02513 7.02513C6.36875 7.6815 6 8.57174 6 9.5C6 10.4283 6.36875 11.3185 7.02513 11.9749C7.6815 12.6313 8.57174 13 9.5 13Z" stroke="#EFC131" stroke-width="1.5" stroke-linejoin="round"/>
</svg>
