<svg width="32" height="32" viewBox="0 0 32 32" fill="none" xmlns="http://www.w3.org/2000/svg">
<path d="M7.42776 25.9494C7.12909 25.9494 6.87487 25.8445 6.66509 25.6348C6.45531 25.425 6.35042 25.1708 6.35042 24.8721C6.35042 24.5734 6.45531 24.3192 6.66509 24.1094C6.87487 23.8997 7.12909 23.7948 7.42776 23.7948H10.3824L6.93042 12.5081C6.34731 12.2263 5.88287 11.8228 5.53709 11.2974C5.19042 10.773 5.01709 10.1699 5.01709 9.4881C5.01709 8.56454 5.34198 7.77788 5.99176 7.1281C6.64153 6.47832 7.4282 6.15388 8.35176 6.15477C9.16687 6.15477 9.86642 6.40454 10.4504 6.9041C11.0344 7.40366 11.4255 8.04277 11.6238 8.82143H16.5038V6.82143C16.5038 6.63121 16.5678 6.47254 16.6958 6.34543C16.8238 6.21832 16.9824 6.15477 17.1718 6.15477C17.3202 6.15477 17.4504 6.19921 17.5624 6.2881C17.6744 6.37699 17.7455 6.49299 17.7758 6.6361V6.9961L20.1971 4.75877C20.3802 4.57566 20.5846 4.46499 20.8104 4.42677C21.038 4.38854 21.2593 4.42766 21.4744 4.5441L26.5198 6.8921C26.6842 6.97477 26.8078 7.09254 26.8904 7.24543C26.9731 7.39832 26.9762 7.55388 26.8998 7.7121C26.818 7.87654 26.7006 7.98054 26.5478 8.0241C26.3949 8.06766 26.2384 8.05121 26.0784 7.97477L21.0224 5.6201L17.8384 8.55343V10.4201L21.0224 13.2868L26.0798 10.9334C26.2389 10.857 26.3962 10.8419 26.5518 10.8881C26.7064 10.9334 26.8224 11.0357 26.8998 11.1948C26.9815 11.3592 26.9798 11.5165 26.8944 11.6668C26.8091 11.8179 26.6846 11.9343 26.5211 12.0161L21.4744 14.3801C21.2584 14.4957 21.0375 14.5303 20.8118 14.4841C20.5851 14.437 20.3802 14.3303 20.1971 14.1641L17.7771 11.9801V12.3388C17.746 12.4721 17.6744 12.5859 17.5624 12.6801C17.4504 12.7743 17.3202 12.8214 17.1718 12.8214C16.9815 12.8214 16.8229 12.7574 16.6958 12.6294C16.5686 12.5023 16.5051 12.3441 16.5051 12.1548V10.1548H11.6224C11.5558 10.4517 11.4451 10.7463 11.2904 11.0388C11.1358 11.3312 10.966 11.5748 10.7811 11.7694L17.2438 23.7961H21.2744C21.5731 23.7961 21.8273 23.9005 22.0371 24.1094C22.2469 24.3183 22.3518 24.5725 22.3518 24.8721C22.3518 25.1717 22.2469 25.4259 22.0371 25.6348C21.8273 25.8437 21.5731 25.9481 21.2744 25.9481L7.42776 25.9494ZM8.35176 11.4881C8.9002 11.4881 9.37042 11.2917 9.76242 10.8988C10.1553 10.5068 10.3518 10.0365 10.3518 9.4881C10.3518 8.93877 10.1553 8.46766 9.76242 8.07477C9.37042 7.68366 8.9002 7.4881 8.35176 7.4881C7.80331 7.4881 7.3322 7.68366 6.93842 8.07477C6.54731 8.46766 6.35176 8.93877 6.35176 9.4881C6.35176 10.0365 6.54731 10.5068 6.93842 10.8988C7.33131 11.2917 7.80242 11.4881 8.35176 11.4881ZM11.7824 23.7948H15.7158L9.67442 12.5641C9.53753 12.6494 9.3442 12.7223 9.09442 12.7828C8.84465 12.8432 8.61753 12.8561 8.41309 12.8214L11.7824 23.7948Z" fill="#EFC131"/>
</svg>
