<svg width="76" height="76" viewBox="0 0 76 76" fill="none" xmlns="http://www.w3.org/2000/svg">
<g clip-path="url(#clip0_144_866)">
<path d="M11.875 28.5C9.35544 28.5 6.93908 29.5009 5.15749 31.2825C3.37589 33.0641 2.375 35.4804 2.375 38V47.5C2.375 50.0196 3.37589 52.4359 5.15749 54.2175C6.93908 55.9991 9.35544 57 11.875 57H14.25C14.8799 57 15.484 56.7498 15.9294 56.3044C16.3748 55.859 16.625 55.2549 16.625 54.625V30.875C16.625 30.2451 16.3748 29.641 15.9294 29.1956C15.484 28.7502 14.8799 28.5 14.25 28.5H11.875ZM11.875 28.5C11.875 21.5712 14.6274 14.9262 19.5268 10.0268C24.4262 5.12745 31.0712 2.375 38 2.375C44.9288 2.375 51.5738 5.12745 56.4732 10.0268C61.3726 14.9262 64.125 21.5712 64.125 28.5M64.125 57H61.75C61.1201 57 60.516 56.7498 60.0706 56.3044C59.6252 55.859 59.375 55.2549 59.375 54.625V30.875C59.375 30.2451 59.6252 29.641 60.0706 29.1956C60.516 28.7502 61.1201 28.5 61.75 28.5H64.125M64.125 57C66.6446 57 69.0609 55.9991 70.8425 54.2175C72.6241 52.4359 73.625 50.0196 73.625 47.5V38C73.625 35.4804 72.6241 33.0641 70.8425 31.2825C69.0609 29.5009 66.6446 28.5 64.125 28.5M64.125 57V59.375C64.125 61.8946 63.1241 64.3109 61.3425 66.0925C59.5609 67.8741 57.1446 68.875 54.625 68.875H47.5" stroke="#EFC131" stroke-width="4" stroke-linecap="round" stroke-linejoin="round"/>
<path d="M28.5 26.1248C28.5 23.94 29.2532 21.8219 30.6325 20.1275C32.0119 18.4331 33.9331 17.2659 36.0726 16.8226C38.212 16.3793 40.4388 16.687 42.3779 17.6939C44.3169 18.7007 45.8497 20.3452 46.7178 22.3502C47.4082 23.9493 47.6488 25.7068 47.4082 27.4327C47.1689 29.1575 46.4602 30.7833 45.3594 32.1326C44.2587 33.4818 42.8083 34.5026 41.1667 35.0833C40.2402 35.4109 39.4381 36.0178 38.8709 36.8203C38.3038 37.6228 37.9995 38.5815 38 39.5642V40.3748M42.75 73.6248H38C36.7402 73.6248 35.532 73.1244 34.6412 72.2336C33.7504 71.3428 33.25 70.1346 33.25 68.8748C33.25 67.6151 33.7504 66.4069 34.6412 65.5161C35.532 64.6253 36.7402 64.1248 38 64.1248H42.75C44.0098 64.1248 45.218 64.6253 46.1088 65.5161C46.9996 66.4069 47.5 67.6151 47.5 68.8748C47.5 70.1346 46.9996 71.3428 46.1088 72.2336C45.218 73.1244 44.0098 73.6248 42.75 73.6248Z" stroke="#EFC131" stroke-width="4" stroke-linecap="round" stroke-linejoin="round"/>
<path d="M38 52.25C37.6851 52.25 37.383 52.1249 37.1603 51.9022C36.9376 51.6795 36.8125 51.3774 36.8125 51.0625C36.8125 50.7476 36.9376 50.4455 37.1603 50.2228C37.383 50.0001 37.6851 49.875 38 49.875M38 52.25C38.3149 52.25 38.617 52.1249 38.8397 51.9022C39.0624 51.6795 39.1875 51.3774 39.1875 51.0625C39.1875 50.7476 39.0624 50.4455 38.8397 50.2228C38.617 50.0001 38.3149 49.875 38 49.875" stroke="#EFC131" stroke-width="4"/>
</g>
<defs>
<clipPath id="clip0_144_866">
<rect width="76" height="76" fill="white"/>
</clipPath>
</defs>
</svg>
