<svg width="22" height="22" viewBox="0 0 22 22" fill="none" xmlns="http://www.w3.org/2000/svg">
<g clip-path="url(#clip0_244_82)">
<path d="M1.6028 14.7273L1.24137 10.6809C0.848513 5.96032 4.54137 1.17847 10.9999 1.17847C17.4585 1.17847 21.1514 5.96032 20.7585 10.6809L20.3971 14.7273" stroke="#EFC131" stroke-width="2.28571" stroke-linecap="round" stroke-linejoin="round"/>
<path d="M14.0028 13.7357C14.0388 13.3245 14.1554 12.9244 14.346 12.5583C14.5366 12.1922 14.7975 11.8672 15.1137 11.6019C15.4299 11.3367 15.7953 11.1363 16.189 11.0122C16.5827 10.8881 16.9969 10.8428 17.4081 10.8788L17.581 10.8946C18.4111 10.9672 19.1784 11.3666 19.7141 12.0049C20.2498 12.6432 20.5101 13.4681 20.4378 14.2983L20.1424 17.691C20.1064 18.1022 19.9898 18.5022 19.7992 18.8684C19.6085 19.2345 19.3477 19.5594 19.0315 19.8247C18.7152 20.09 18.3499 20.2904 17.9562 20.4145C17.5625 20.5386 17.1483 20.5839 16.7371 20.5478L16.5642 20.5321C16.1529 20.4963 15.7527 20.3798 15.3864 20.1893C15.0201 19.9988 14.6949 19.738 14.4295 19.4217C14.164 19.1055 13.9635 18.7401 13.8393 18.3463C13.7151 17.9525 13.6698 17.5381 13.7058 17.1268L14.0028 13.7357ZM1.56181 14.2998C1.52577 13.8887 1.57108 13.4744 1.69515 13.0807C1.81922 12.6871 2.01963 12.3217 2.28491 12.0055C2.5502 11.6893 2.87518 11.4284 3.24129 11.2378C3.6074 11.0472 4.00748 10.9305 4.41866 10.8946L4.59152 10.8788C5.00283 10.8426 5.41725 10.8877 5.8111 11.0117C6.20495 11.1357 6.57052 11.336 6.8869 11.6013C7.20329 11.8667 7.4643 12.1917 7.65501 12.5579C7.84572 12.9242 7.9624 13.3244 7.99838 13.7357L8.29538 17.1268C8.33141 17.538 8.2861 17.9523 8.16203 18.3459C8.03796 18.7396 7.83756 19.105 7.57227 19.4212C7.30698 19.7374 6.982 19.9983 6.61589 20.1889C6.24978 20.3795 5.84971 20.4961 5.43852 20.5321L5.26566 20.5478C4.85436 20.5841 4.43993 20.5389 4.04608 20.415C3.65223 20.291 3.28667 20.0906 2.97028 19.8253C2.65389 19.56 2.39289 19.235 2.20218 18.8687C2.01146 18.5025 1.89479 18.1023 1.85881 17.691L1.56181 14.2998Z" stroke="#EFC131" stroke-width="2.28571" stroke-linecap="round" stroke-linejoin="round"/>
</g>
<defs>
<clipPath id="clip0_244_82">
<rect width="22" height="22" fill="white"/>
</clipPath>
</defs>
</svg>
