<svg width="232" height="45" viewBox="0 0 232 45" fill="none" xmlns="http://www.w3.org/2000/svg">
<path d="M16.9111 23.3623V25.6572C18.808 26.3549 20.3523 27.6857 21.7549 29.5059C23.085 31.3941 23.7879 33.355 23.7881 35.3154C23.7881 38.1141 22.7348 40.5647 20.7695 42.5254C20.2015 43.0932 19.5991 43.5766 18.9668 43.9814H14.5088C10.3309 43.9814 6.56278 42.2147 3.91406 39.3906C3.3596 38.1401 3.08984 36.7756 3.08984 35.3154C3.09003 33.2869 3.79381 31.3979 5.19629 29.4375C6.59886 27.5493 8.28293 26.2905 10.248 25.5889V23.2344L16.9111 23.3623ZM31.1152 15.9814H36.5977V4.90332H54.5068V29.8574C54.2703 26.918 53.1275 24.6111 50.9014 22.9463C48.4457 21.0579 44.9161 20.1152 40.3145 20.1152L40.3193 20.1074H31.0547V25.0107H39.877C43.1522 25.0108 45.548 25.5169 46.9346 26.6475C48.3811 27.778 49.076 29.4139 49.0762 31.6748C49.0762 34.2527 48.3852 36.0773 46.9346 37.208C45.548 38.2785 43.1524 38.8447 39.877 38.8447H31.0547V43.9814H26.8076C26.9704 43.7371 27.133 43.486 27.293 43.2266C28.9085 40.5643 29.748 37.9055 29.748 35.3154C29.7479 31.8155 28.5549 28.5956 26.0312 25.5166C24.9424 24.2176 23.747 23.1285 22.46 22.2471C23.7233 21.2077 24.8408 19.8663 25.8945 18.1553C27.3454 15.7656 28.1006 13.3753 28.1006 11.0498C28.1005 7.90647 27.0274 5.0155 24.7607 2.24902C24.0488 1.40024 23.2864 0.650851 22.4785 0H31.1152V15.9814ZM34.9619 43.9814H32.7676C33.4191 43.9729 34.1452 43.9676 34.9619 43.9814ZM45.126 43.7451C44.4249 43.8874 43.7013 43.9673 42.9609 43.9785C43.7346 43.924 44.4545 43.8463 45.126 43.7451ZM0 16.2559C0.267368 16.8407 0.579641 17.4298 0.939453 18.0225C1.93135 19.7319 3.08521 21.1515 4.39941 22.2354C3.16722 23.0905 2.02873 24.1387 0.988281 25.3799C0.633385 25.8008 0.305221 26.2272 0 26.6562V16.2559ZM16.5703 2.37305C18.2742 2.9985 19.6571 4.19346 20.9189 5.8291C22.1166 7.52504 22.747 9.28581 22.7471 11.0459C22.7471 13.5599 21.8024 15.7613 20.0381 17.5215C18.2095 19.3456 16.0675 20.2236 13.4834 20.2236C10.8994 20.2236 8.75728 19.3456 6.92871 17.5215C5.03591 15.7613 4.15527 13.5598 4.15527 11.0459C4.15535 9.22178 4.78218 7.52561 6.04395 5.76562C7.3059 4.06966 8.81773 2.93809 10.582 2.30859V0H16.5703V2.37305ZM4.39551 0C3.64106 0.619508 2.92844 1.32526 2.26172 2.12012C1.30749 3.25263 0.557132 4.41782 0 5.61719V0H4.39551Z" fill="white"/>
<path d="M74.1355 31.5191V20.1238C74.1355 17.6018 73.2312 16.3388 70.9564 16.3388C68.4968 16.3388 66.9092 18.107 66.9092 21.1342V31.5191H62.2471V5.8457H66.9092V15.581C67.922 13.7767 69.5859 12.5537 72.4033 12.5537C76.6676 12.5537 78.8017 14.7189 78.8017 19.2257V31.5231H74.1395L74.1355 31.5191Z" fill="white"/>
<path d="M81.8359 7.71819C81.8359 6.34692 82.8126 5.30042 84.5488 5.30042C86.2851 5.30042 87.2255 6.34692 87.2255 7.71819C87.2255 9.08947 86.2851 10.136 84.5488 10.136C82.8126 10.136 81.8359 9.08947 81.8359 7.71819ZM82.1977 31.5191V12.9106H86.8598V31.5191H82.1977Z" fill="white"/>
<path d="M89.5322 22.2167C89.5322 16.1222 92.7113 12.5536 97.7392 12.5536C100.557 12.5536 102.438 13.7084 103.486 15.7292V5.84961H108.149V31.523H103.704V28.3514C102.691 30.5166 100.85 31.8838 97.7392 31.8838C92.7153 31.8838 89.5322 28.3153 89.5322 22.2207V22.2167ZM103.486 22.2167C103.486 17.9626 101.606 16.0861 98.8244 16.0861C96.0431 16.0861 94.1984 17.9626 94.1984 22.2167C94.1984 26.4709 96.0793 28.3474 98.8244 28.3474C101.569 28.3474 103.486 26.4709 103.486 22.2167Z" fill="white"/>
<path d="M111.545 31.5189V12.9104H115.99V17.0563C116.967 13.7765 118.59 12.6578 121.195 12.6578C121.701 12.6578 122.461 12.8022 122.895 12.9104V16.9842L120.978 16.9481C118.12 16.9481 116.207 19.0772 116.207 22.8622V31.5149H111.545V31.5189Z" fill="white"/>
<path d="M123.727 26.2544C123.727 23.4076 125.427 21.1342 130.125 20.7733L133.919 20.4486C135.8 20.2681 136.343 19.7629 136.343 18.7886C136.343 16.9482 135.222 15.8656 132.911 15.8656C130.74 15.8656 129.551 16.8038 129.37 18.7886H124.744C124.744 15.0035 127.131 12.5497 132.879 12.5497C138.626 12.5497 141.013 15.0035 141.013 18.7886V26.7596C141.013 29.2817 141.23 30.9056 141.592 31.519H137.364C136.821 30.8334 136.568 30.0756 136.568 28.6321C135.519 30.7612 133.638 31.8759 130.459 31.8759C126.086 31.8759 123.735 29.6746 123.735 26.2504L123.727 26.2544ZM136.343 23.8006V22.5015C136.017 22.8984 135.149 23.1149 133.883 23.2232L131.677 23.4036C129.326 23.6201 128.389 24.5945 128.389 25.9256C128.389 27.5856 129.438 28.7043 131.821 28.7043C134.711 28.7043 136.339 26.503 136.339 23.8006H136.343Z" fill="white"/>
<path d="M165.654 31.519V19.9794C165.654 17.4895 164.822 16.3387 163.014 16.3387C161.06 16.3387 159.509 17.9626 159.509 20.9899V31.519H154.992V19.9794C154.992 17.4895 154.16 16.3387 152.387 16.3387C150.434 16.3387 148.883 17.9626 148.883 20.9899V31.519H144.401V12.9105H148.846V15.9378C149.751 13.953 151.342 12.5497 153.907 12.5497C156.619 12.5497 158.315 13.7044 159.075 16.046C160.016 13.8809 161.86 12.5497 164.424 12.5497C168.255 12.5497 170.136 14.7149 170.136 19.2216V31.519H165.654Z" fill="white"/>
<path d="M172.812 26.2544C172.812 23.4076 174.512 21.1342 179.21 20.7733L183.004 20.4486C184.885 20.2681 185.428 19.7629 185.428 18.7886C185.428 16.9482 184.307 15.8656 181.996 15.8656C179.825 15.8656 178.636 16.8038 178.455 18.7886H173.829C173.829 15.0035 176.216 12.5497 181.963 12.5497C187.711 12.5497 190.098 15.0035 190.098 18.7886V26.7596C190.098 29.2817 190.315 30.9056 190.677 31.519H186.449C185.906 30.8334 185.653 30.0756 185.653 28.6321C184.604 30.7612 182.723 31.8759 179.544 31.8759C175.171 31.8759 172.82 29.6746 172.82 26.2504L172.812 26.2544ZM185.424 23.8006V22.5015C185.098 22.8984 184.23 23.1149 182.964 23.2232L180.758 23.4036C178.407 23.6201 177.47 24.5945 177.47 25.9256C177.47 27.5856 178.519 28.7043 180.902 28.7043C183.792 28.7043 185.42 26.503 185.42 23.8006H185.424Z" fill="white"/>
<path d="M205.375 31.519V20.1238C205.375 17.6018 204.471 16.3387 202.196 16.3387C199.736 16.3387 198.148 18.107 198.148 21.1342V31.519H193.486V12.9105H197.931V15.9378C198.944 13.953 200.608 12.5497 203.643 12.5497C207.907 12.5497 210.041 14.7149 210.041 19.2216V31.519H205.379H205.375Z" fill="white"/>
<path d="M212.713 21.6755C212.713 16.1944 215.893 12.5537 220.92 12.5537C224.027 12.5537 225.872 13.925 226.885 16.0862V12.9106H231.33V30.0034C231.33 35.7732 228.223 38.9448 222.114 38.9448C216.512 38.9448 213.726 36.2744 213.726 32.2729H218.099C218.388 34.6185 219.799 35.8775 222.327 35.8775C225.076 35.8775 226.664 34.3979 226.664 31.2985V27.6217C225.615 29.6426 223.734 30.7933 220.916 30.7933C215.893 30.7933 212.709 27.1526 212.709 21.6715L212.713 21.6755ZM226.664 21.6755C226.664 17.8183 224.783 15.8696 222.002 15.8696C219.22 15.8696 217.376 17.8183 217.376 21.6755C217.376 25.5327 219.257 27.4814 222.002 27.4814C224.747 27.4814 226.664 25.5327 226.664 21.6755Z" fill="white"/>
<path d="M144.381 39.4659C144.381 37.6336 145.362 36.4868 147.066 36.4868C148.77 36.4868 149.57 37.6295 149.57 38.644H148.734C148.621 37.8902 148.155 37.2005 147.062 37.2005C145.969 37.2005 145.302 37.9664 145.302 39.4659C145.302 40.9655 145.969 41.7314 147.062 41.7314C148.019 41.7314 148.597 41.2101 148.734 40.2438H149.57C149.57 41.3665 148.758 42.4451 147.066 42.4451C145.374 42.4451 144.381 41.3104 144.381 39.4659Z" fill="#E8C250"/>
<path d="M150.193 39.4659C150.193 37.6336 151.174 36.4868 152.942 36.4868C154.71 36.4868 155.703 37.6296 155.703 39.4659C155.703 41.3023 154.722 42.4451 152.942 42.4451C151.161 42.4451 150.193 41.3104 150.193 39.4659ZM154.779 39.4659C154.779 37.9664 154.111 37.2005 152.942 37.2005C151.772 37.2005 151.117 37.9664 151.117 39.4659C151.117 40.9655 151.784 41.7314 152.942 41.7314C154.099 41.7314 154.779 40.9655 154.779 39.4659Z" fill="#E8C250"/>
<path d="M163.255 42.3327V38.6679C163.255 37.7137 162.966 37.2365 162.198 37.2365C161.43 37.2365 160.827 37.9582 160.827 39.113V42.3367H159.947V38.672C159.947 37.7177 159.646 37.2405 158.902 37.2405C158.159 37.2405 157.556 37.9622 157.556 39.117V42.3407H156.664V36.607H157.544V37.6615C157.809 36.9518 158.38 36.4948 159.167 36.4948C160.048 36.4948 160.558 36.9077 160.751 37.7297C161.04 36.9198 161.663 36.4948 162.455 36.4948C163.601 36.4948 164.147 37.1603 164.147 38.5517V42.3407H163.255V42.3327Z" fill="#E8C250"/>
<path d="M166.249 41.2422V44.51H165.325V36.5991H166.205V37.7418C166.526 36.9319 167.198 36.4868 168.23 36.4868C169.778 36.4868 170.726 37.5855 170.726 39.4659C170.726 41.3464 169.778 42.4451 168.23 42.4451C167.25 42.4451 166.571 42.0441 166.249 41.2462V41.2422ZM169.802 39.4659C169.802 37.8982 169.079 37.2005 168.021 37.2005C166.964 37.2005 166.249 37.9022 166.249 39.4659C166.249 41.0297 166.973 41.7314 168.021 41.7314C169.07 41.7314 169.802 41.0297 169.802 39.4659Z" fill="#E8C250"/>
<path d="M171.458 39.4659C171.458 37.6336 172.439 36.4868 174.207 36.4868C175.975 36.4868 176.968 37.6296 176.968 39.4659C176.968 41.3023 175.988 42.4451 174.207 42.4451C172.427 42.4451 171.458 41.3104 171.458 39.4659ZM176.048 39.4659C176.048 37.9664 175.381 37.2005 174.211 37.2005C173.042 37.2005 172.386 37.9664 172.386 39.4659C172.386 40.9655 173.054 41.7314 174.211 41.7314C175.369 41.7314 176.048 40.9655 176.048 39.4659Z" fill="#E8C250"/>
<path d="M181.702 42.3328V38.6881C181.702 37.7338 181.356 37.2326 180.432 37.2326C179.508 37.2326 178.853 37.9784 178.853 39.1331V42.3328H177.928V36.5991H178.808V37.6536C179.13 36.9439 179.721 36.4868 180.689 36.4868C182.004 36.4868 182.627 37.1524 182.627 38.5437V42.3328H181.702Z" fill="#E8C250"/>
<path d="M183.583 39.4659C183.583 37.6977 184.496 36.4868 186.268 36.4868C188.041 36.4868 188.965 37.7298 188.965 39.3296C188.965 39.4178 188.965 39.5181 188.941 39.6063H184.508C184.528 41.162 185.263 41.7955 186.333 41.7955C187.257 41.7955 187.816 41.3063 188.013 40.5846H188.836C188.567 41.7273 187.779 42.4411 186.333 42.4411C184.56 42.4411 183.583 41.3063 183.583 39.4619V39.4659ZM184.508 38.9848H188.037C187.916 37.7418 187.257 37.1284 186.264 37.1284C185.272 37.1284 184.628 37.7378 184.504 38.9848H184.508Z" fill="#E8C250"/>
<path d="M193.695 42.3328V38.6881C193.695 37.7338 193.35 37.2326 192.425 37.2326C191.501 37.2326 190.846 37.9784 190.846 39.1331V42.3328H189.921V36.5991H190.802V37.6536C191.123 36.9439 191.714 36.4868 192.682 36.4868C193.997 36.4868 194.62 37.1524 194.62 38.5437V42.3328H193.695Z" fill="#E8C250"/>
<path d="M196.187 40.9976V37.2647H195.206V36.5991H196.187V34.8669H197.111V36.5991H198.494V37.2647H197.111V41.0216C197.111 41.579 197.3 41.7113 197.891 41.7113L198.494 41.6872V42.3328C198.273 42.3568 197.903 42.3889 197.702 42.3889C196.601 42.3889 196.187 42.0682 196.187 41.0016V40.9976Z" fill="#E8C250"/>
<path d="M198.828 39.4659C198.828 37.6977 199.74 36.4868 201.513 36.4868C203.285 36.4868 204.21 37.7298 204.21 39.3296C204.21 39.4178 204.21 39.5181 204.186 39.6063H199.753C199.773 41.162 200.508 41.7955 201.577 41.7955C202.502 41.7955 203.06 41.3063 203.257 40.5846H204.081C203.812 41.7273 203.024 42.4411 201.577 42.4411C199.805 42.4411 198.828 41.3063 198.828 39.4619V39.4659ZM199.753 38.9848H203.281C203.161 37.7418 202.502 37.1284 201.509 37.1284C200.516 37.1284 199.873 37.7378 199.748 38.9848H199.753Z" fill="#E8C250"/>
<path d="M204.937 40.5846H205.817C205.873 41.2943 206.163 41.8075 207.32 41.8075C208.478 41.8075 208.767 41.2983 208.767 40.741C208.767 40.2197 208.409 39.9631 207.823 39.8749L206.697 39.7065C205.616 39.5501 205.094 39.1532 205.094 38.231C205.094 37.3088 205.64 36.4868 207.308 36.4868C208.976 36.4868 209.535 37.2767 209.535 38.255H208.655C208.598 37.6656 208.422 37.1203 207.308 37.1203C206.36 37.1203 206.018 37.5093 206.018 38.1628C206.018 38.7202 206.332 38.8966 206.822 38.9647L207.959 39.1331C209.028 39.2895 209.696 39.6985 209.696 40.7009C209.696 41.7033 209.073 42.4451 207.312 42.4451C205.552 42.4451 204.941 41.6552 204.941 40.5886L204.937 40.5846Z" fill="#E8C250"/>
</svg>
